<svg width="20" height="20" viewBox="0 0 20 20" fill="none" xmlns="http://www.w3.org/2000/svg">
<path d="M11 14.0012H5.00001C4.73479 14.0012 4.48044 14.1065 4.2929 14.294C4.10536 14.4815 4.00001 14.7358 4.00001 15.001C4.00001 15.2662 4.10536 15.5205 4.2929 15.708C4.48044 15.8955 4.73479 16.0008 5.00001 16.0008H11C11.2652 16.0008 11.5196 15.8955 11.7071 15.708C11.8946 15.5205 12 15.2662 12 15.001C12 14.7358 11.8946 14.4815 11.7071 14.294C11.5196 14.1065 11.2652 14.0012 11 14.0012ZM7.00001 8.00238H9C9.26522 8.00238 9.51957 7.89705 9.70711 7.70955C9.89465 7.52205 10 7.26775 10 7.00258C10 6.73742 9.89465 6.48312 9.70711 6.29562C9.51957 6.10812 9.26522 6.00278 9 6.00278H7.00001C6.73479 6.00278 6.48044 6.10812 6.2929 6.29562C6.10536 6.48312 6.00001 6.73742 6.00001 7.00258C6.00001 7.26775 6.10536 7.52205 6.2929 7.70955C6.48044 7.89705 6.73479 8.00238 7.00001 8.00238ZM19 10.002H16V1.00378C16.0007 0.8276 15.9548 0.654368 15.867 0.501621C15.7792 0.348873 15.6526 0.222035 15.5 0.133948C15.348 0.0461972 15.1755 0 15 0C14.8245 0 14.652 0.0461972 14.5 0.133948L11.5 1.85361L8.5 0.133948C8.34799 0.0461972 8.17554 0 8 0C7.82447 0 7.65202 0.0461972 7.50001 0.133948L4.50001 1.85361L1.50001 0.133948C1.34799 0.0461972 1.17554 0 1.00001 0C0.824471 0 0.652027 0.0461972 0.500008 0.133948C0.347403 0.222035 0.220789 0.348873 0.132986 0.501621C0.0451828 0.654368 -0.000691684 0.8276 7.88288e-06 1.00378V17.0006C7.88288e-06 17.7961 0.316078 18.559 0.878687 19.1215C1.4413 19.684 2.20436 20 3.00001 20H17C17.7957 20 18.5587 19.684 19.1213 19.1215C19.6839 18.559 20 17.7961 20 17.0006V11.0018C20 10.7366 19.8946 10.4823 19.7071 10.2948C19.5196 10.1073 19.2652 10.002 19 10.002ZM3.00001 18.0004C2.73479 18.0004 2.48044 17.8951 2.2929 17.7076C2.10536 17.5201 2.00001 17.2658 2.00001 17.0006V2.73343L4.00001 3.8732C4.15434 3.9538 4.32588 3.99589 4.50001 3.99589C4.67413 3.99589 4.84567 3.9538 5.00001 3.8732L8 2.15355L11 3.8732C11.1543 3.9538 11.3259 3.99589 11.5 3.99589C11.6741 3.99589 11.8457 3.9538 12 3.8732L14 2.73343V17.0006C14.0027 17.3417 14.0636 17.6798 14.18 18.0004H3.00001ZM18 17.0006C18 17.2658 17.8946 17.5201 17.7071 17.7076C17.5196 17.8951 17.2652 18.0004 17 18.0004C16.7348 18.0004 16.4804 17.8951 16.2929 17.7076C16.1054 17.5201 16 17.2658 16 17.0006V12.0016H18V17.0006ZM11 10.002H5.00001C4.73479 10.002 4.48044 10.1073 4.2929 10.2948C4.10536 10.4823 4.00001 10.7366 4.00001 11.0018C4.00001 11.267 4.10536 11.5213 4.2929 11.7088C4.48044 11.8963 4.73479 12.0016 5.00001 12.0016H11C11.2652 12.0016 11.5196 11.8963 11.7071 11.7088C11.8946 11.5213 12 11.267 12 11.0018C12 10.7366 11.8946 10.4823 11.7071 10.2948C11.5196 10.1073 11.2652 10.002 11 10.002Z" fill="black"/>
</svg>
